# xmcd
#
# Track frame offsets: 
#        150
#        14751
#        30146
#        48989
#        68339
#        86043
#        102353
#        120961
#        138308
#        155396
#        171155
#        188898
#        208288
#        229123
#        250610
#        270405
#
# Disc length: 3884 seconds
#
# Revision: 1
# Processed by: cddbd v1.5.2PL0 Copyright (c) Steve Scherf et al.
# Submitted via: ExactAudioCopyFreeDBPlugin 1.0
#
DISCID=ca0f2a10
DTITLE=The Band Perry - Pioneer
DYEAR=2013
DGENRE=Country
TTITLE0=Better Dig Two
TTITLE1=Done
TTITLE2=Don't Let Me Be Lonely
TTITLE3=Pioneer
TTITLE4=Forever Mine Never Mind
TTITLE5=Night Gone Wasted
TTITLE6=I Saw A Light
TTITLE7=Mother Like Mine
TTITLE8=Chainsaw
TTITLE9=I'm A Keeper
TTITLE10=Back To Me Without You
TTITLE11=End Of Time
TTITLE12=Once Upon A Time
TTITLE13=Lucky Ones
TTITLE14=Peaches And Carolina
TTITLE15=Gonna Be OK
EXTD=
EXTT0=
EXTT1=
EXTT2=
EXTT3=
EXTT4=
EXTT5=
EXTT6=
EXTT7=
EXTT8=
EXTT9=
EXTT10=
EXTT11=
EXTT12=
EXTT13=
EXTT14=
EXTT15=
PLAYORDER=
